<svg width="1440" height="192" viewBox="0 0 1440 192" fill="none" xmlns="http://www.w3.org/2000/svg">
<path d="M-18.4656 32.6C-8.06562 31.4 1.63438 27.4 1.63438 16.6C1.63438 2.6 -14.9656 -4.76837e-06 -27.8656 -4.76837e-06H-48.7656V70H-23.5656C-10.5656 70 6.03438 65.3 6.03438 51.2C6.03438 39 -6.66562 33.8 -18.4656 32.6ZM-27.8656 0.799997C-11.4656 0.799997 -6.16562 7.8 -6.16562 16.6C-6.16562 25.5 -11.4656 32.4 -27.8656 32.4H-40.9656V0.799997H-27.8656ZM-23.5656 69.3H-40.9656V33.2H-23.5656C-7.06562 33.2 -1.86562 42.4 -1.86562 51.2C-1.86562 60.1 -7.06562 69.3 -23.5656 69.3ZM35.9039 21.9C27.9039 21.9 23.1039 26.1 21.5039 31.5L22.2039 31.8C23.8039 26.5 28.5039 22.9 35.0039 22.9C42.1039 22.9 46.2039 29.6 46.2039 37.2V46.5C40.0039 33.7 11.0039 34.7 11.0039 55.1C11.0039 63.9 19.4039 70.5 28.9039 70.5C39.0039 70.5 44.4039 63.3 46.2039 56L53.0039 70H54.1039V38.5C54.1039 26.2 44.2039 21.9 35.9039 21.9ZM31.1039 68.6C24.2039 68.6 18.2039 62.5 18.2039 54.2C18.2039 34.6 42.3039 36.9 46.2039 48.4V50.8C45.8039 59.4 40.4039 68.6 31.1039 68.6ZM106.102 39.4C104.802 27.5 97.9016 21.9 89.7016 21.9C76.7016 21.9 73.3016 35.4 72.0016 46.7V22.6H64.1016V70H72.0016V55.2C72.0016 46.8 74.0016 25.8 85.2016 23.7C93.8016 22 97.5016 30.5 98.3016 38C98.8016 43.1 100.902 66.7 101.202 70H109.202C108.702 66.3 107.102 49.2 106.102 39.4ZM138.227 37L154.427 22.6H153.327L125.027 47.7V-4.76837e-06H117.227V70H125.027V48.6L133.127 41.4L150.627 70H158.727L138.227 37ZM230.809 39.4C229.509 27.5 222.609 21.9 214.409 21.9C201.409 21.9 198.009 35.4 196.709 46.7V-4.76837e-06H188.809V70H196.709V55.1C196.709 46.7 198.709 25.8 209.909 23.7C218.509 22 222.209 30.5 223.009 38C223.509 43.1 225.509 66.7 225.909 70H233.809C233.409 66.3 231.809 49.2 230.809 39.4ZM265.236 21.9C252.636 21.9 238.836 31 238.836 46.2C238.836 61.4 252.636 70.5 265.236 70.5C277.836 70.5 291.636 61.4 291.636 46.2C291.636 31 277.836 21.9 265.236 21.9ZM265.236 69.7C255.336 69.7 247.036 59.4 247.036 46.2C247.036 33 255.336 22.7 265.236 22.7C275.136 22.7 283.436 33 283.436 46.2C283.436 59.4 275.136 69.7 265.236 69.7ZM327.595 52.3C327.595 60.6 324.695 68.4 317.995 68.7C310.095 69.1 308.495 63.1 308.495 54.4V22.6H320.195V21.9H308.495V8.2H307.395L300.595 21.9H294.695V22.6H300.595V53C300.595 64.7 306.095 70.5 314.895 70.5C325.495 70.5 328.295 61.8 328.295 52.3H327.595ZM381.67 56.1C380.07 59 374.67 67.7 364.87 68.7C354.67 69.8 346.27 64.2 342.57 53.7C340.87 48.9 340.67 43 341.87 37.7H381.17C379.77 25.6 368.07 21.4 359.67 21.9C348.67 22.4 332.87 29.9 333.37 47.3C333.77 63.7 348.37 71.1 361.37 70.5C373.27 69.9 379.17 62.1 382.37 56.4L381.67 56.1ZM355.07 23C364.87 21.2 372.67 28.2 373.97 36.9H342.07C343.97 30.1 348.27 24.3 355.07 23ZM389.395 -4.76837e-06V70H397.295V-4.76837e-06H389.395ZM1098.82 32.6C1109.22 31.4 1118.92 27.4 1118.92 16.6C1118.92 2.6 1102.32 -4.76837e-06 1089.42 -4.76837e-06H1068.52V70H1093.72C1106.72 70 1123.32 65.3 1123.32 51.2C1123.32 39 1110.62 33.8 1098.82 32.6ZM1089.42 0.799997C1105.82 0.799997 1111.12 7.8 1111.12 16.6C1111.12 25.5 1105.82 32.4 1089.42 32.4H1076.32V0.799997H1089.42ZM1093.72 69.3H1076.32V33.2H1093.72C1110.22 33.2 1115.42 42.4 1115.42 51.2C1115.42 60.1 1110.22 69.3 1093.72 69.3ZM1153.19 21.9C1145.19 21.9 1140.39 26.1 1138.79 31.5L1139.49 31.8C1141.09 26.5 1145.79 22.9 1152.29 22.9C1159.39 22.9 1163.49 29.6 1163.49 37.2V46.5C1157.29 33.7 1128.29 34.7 1128.29 55.1C1128.29 63.9 1136.69 70.5 1146.19 70.5C1156.29 70.5 1161.69 63.3 1163.49 56L1170.29 70H1171.39V38.5C1171.39 26.2 1161.49 21.9 1153.19 21.9ZM1148.39 68.6C1141.49 68.6 1135.49 62.5 1135.49 54.2C1135.49 34.6 1159.59 36.9 1163.49 48.4V50.8C1163.09 59.4 1157.69 68.6 1148.39 68.6ZM1223.39 39.4C1222.09 27.5 1215.19 21.9 1206.99 21.9C1193.99 21.9 1190.59 35.4 1189.29 46.7V22.6H1181.39V70H1189.29V55.2C1189.29 46.8 1191.29 25.8 1202.49 23.7C1211.09 22 1214.79 30.5 1215.59 38C1216.09 43.1 1218.19 66.7 1218.49 70H1226.49C1225.99 66.3 1224.39 49.2 1223.39 39.4ZM1255.51 37L1271.71 22.6H1270.61L1242.31 47.7V-4.76837e-06H1234.51V70H1242.31V48.6L1250.41 41.4L1267.91 70H1276.01L1255.51 37ZM1348.09 39.4C1346.79 27.5 1339.89 21.9 1331.69 21.9C1318.69 21.9 1315.29 35.4 1313.99 46.7V-4.76837e-06H1306.09V70H1313.99V55.1C1313.99 46.7 1315.99 25.8 1327.19 23.7C1335.79 22 1339.49 30.5 1340.29 38C1340.79 43.1 1342.79 66.7 1343.19 70H1351.09C1350.69 66.3 1349.09 49.2 1348.09 39.4ZM1382.52 21.9C1369.92 21.9 1356.12 31 1356.12 46.2C1356.12 61.4 1369.92 70.5 1382.52 70.5C1395.12 70.5 1408.92 61.4 1408.92 46.2C1408.92 31 1395.12 21.9 1382.52 21.9ZM1382.52 69.7C1372.62 69.7 1364.32 59.4 1364.32 46.2C1364.32 33 1372.62 22.7 1382.52 22.7C1392.42 22.7 1400.72 33 1400.72 46.2C1400.72 59.4 1392.42 69.7 1382.52 69.7ZM1444.88 52.3C1444.88 60.6 1441.98 68.4 1435.28 68.7C1427.38 69.1 1425.78 63.1 1425.78 54.4V22.6H1437.48V21.9H1425.78V8.2H1424.68L1417.88 21.9H1411.98V22.6H1417.88V53C1417.88 64.7 1423.38 70.5 1432.18 70.5C1442.78 70.5 1445.58 61.8 1445.58 52.3H1444.88ZM1498.95 56.1C1497.35 59 1491.95 67.7 1482.15 68.7C1471.95 69.8 1463.55 64.2 1459.85 53.7C1458.15 48.9 1457.95 43 1459.15 37.7L1498.45 37.7C1497.05 25.6 1485.35 21.4 1476.95 21.9C1465.95 22.4 1450.15 29.9 1450.65 47.3C1451.05 63.7 1465.65 71.1 1478.65 70.5C1490.55 69.9 1496.45 62.1 1499.65 56.4L1498.95 56.1ZM1472.35 23C1482.15 21.2 1489.95 28.2 1491.25 36.9H1459.35C1461.25 30.1 1465.55 24.3 1472.35 23ZM1506.68 -4.76837e-06V70H1514.58V-4.76837e-06H1506.68ZM1578.9 32.6C1589.3 31.4 1599 27.4 1599 16.6C1599 2.6 1582.4 -4.76837e-06 1569.5 -4.76837e-06L1548.6 -4.76837e-06V70H1573.8C1586.8 70 1603.4 65.3 1603.4 51.2C1603.4 39 1590.7 33.8 1578.9 32.6ZM1569.5 0.799997C1585.9 0.799997 1591.2 7.8 1591.2 16.6C1591.2 25.5 1585.9 32.4 1569.5 32.4H1556.4V0.799997L1569.5 0.799997ZM1573.8 69.3H1556.4V33.2H1573.8C1590.3 33.2 1595.5 42.4 1595.5 51.2C1595.5 60.1 1590.3 69.3 1573.8 69.3ZM1633.27 21.9C1625.27 21.9 1620.47 26.1 1618.87 31.5L1619.57 31.8C1621.17 26.5 1625.87 22.9 1632.37 22.9C1639.47 22.9 1643.57 29.6 1643.57 37.2V46.5C1637.37 33.7 1608.37 34.7 1608.37 55.1C1608.37 63.9 1616.77 70.5 1626.27 70.5C1636.37 70.5 1641.77 63.3 1643.57 56L1650.37 70H1651.47V38.5C1651.47 26.2 1641.57 21.9 1633.27 21.9ZM1628.47 68.6C1621.57 68.6 1615.57 62.5 1615.57 54.2C1615.57 34.6 1639.67 36.9 1643.57 48.4V50.8C1643.17 59.4 1637.77 68.6 1628.47 68.6ZM1703.46 39.4C1702.16 27.5 1695.26 21.9 1687.06 21.9C1674.06 21.9 1670.66 35.4 1669.36 46.7V22.6H1661.46V70H1669.36V55.2C1669.36 46.8 1671.36 25.8 1682.56 23.7C1691.16 22 1694.86 30.5 1695.66 38C1696.16 43.1 1698.26 66.7 1698.56 70H1706.56C1706.06 66.3 1704.46 49.2 1703.46 39.4ZM1735.59 37L1751.79 22.6H1750.69L1722.39 47.7V-4.76837e-06H1714.59V70H1722.39V48.6L1730.49 41.4L1747.99 70H1756.09L1735.59 37ZM1828.17 39.4C1826.87 27.5 1819.97 21.9 1811.77 21.9C1798.77 21.9 1795.37 35.4 1794.07 46.7V-4.76837e-06H1786.17V70H1794.07V55.1C1794.07 46.7 1796.07 25.8 1807.27 23.7C1815.87 22 1819.57 30.5 1820.37 38C1820.87 43.1 1822.87 66.7 1823.27 70H1831.17C1830.77 66.3 1829.17 49.2 1828.17 39.4ZM1862.6 21.9C1850 21.9 1836.2 31 1836.2 46.2C1836.2 61.4 1850 70.5 1862.6 70.5C1875.2 70.5 1889 61.4 1889 46.2C1889 31 1875.2 21.9 1862.6 21.9ZM1862.6 69.7C1852.7 69.7 1844.4 59.4 1844.4 46.2C1844.4 33 1852.7 22.7 1862.6 22.7C1872.5 22.7 1880.8 33 1880.8 46.2C1880.8 59.4 1872.5 69.7 1862.6 69.7ZM1924.96 52.3C1924.96 60.6 1922.06 68.4 1915.36 68.7C1907.46 69.1 1905.86 63.1 1905.86 54.4V22.6H1917.56V21.9H1905.86V8.2H1904.76L1897.96 21.9H1892.06V22.6H1897.96V53C1897.96 64.7 1903.46 70.5 1912.26 70.5C1922.86 70.5 1925.66 61.8 1925.66 52.3H1924.96ZM1979.03 56.1C1977.43 59 1972.03 67.7 1962.23 68.7C1952.03 69.8 1943.63 64.2 1939.93 53.7C1938.23 48.9 1938.03 43 1939.23 37.7H1978.53C1977.13 25.6 1965.43 21.4 1957.03 21.9C1946.03 22.4 1930.23 29.9 1930.73 47.3C1931.13 63.7 1945.73 71.1 1958.73 70.5C1970.63 69.9 1976.53 62.1 1979.73 56.4L1979.03 56.1ZM1952.43 23C1962.23 21.2 1970.03 28.2 1971.33 36.9H1939.43C1941.33 30.1 1945.63 24.3 1952.43 23ZM1986.76 -4.76837e-06V70H1994.66V-4.76837e-06H1986.76ZM2058.98 32.6C2069.38 31.4 2079.08 27.4 2079.08 16.6C2079.08 2.6 2062.48 -4.76837e-06 2049.58 -4.76837e-06H2028.68V70H2053.88C2066.88 70 2083.48 65.3 2083.48 51.2C2083.48 39 2070.78 33.8 2058.98 32.6ZM2049.58 0.799997C2065.98 0.799997 2071.28 7.8 2071.28 16.6C2071.28 25.5 2065.98 32.4 2049.58 32.4H2036.48V0.799997H2049.58ZM2053.88 69.3H2036.48V33.2H2053.88C2070.38 33.2 2075.58 42.4 2075.58 51.2C2075.58 60.1 2070.38 69.3 2053.88 69.3ZM2113.35 21.9C2105.35 21.9 2100.55 26.1 2098.95 31.5L2099.65 31.8C2101.25 26.5 2105.95 22.9 2112.45 22.9C2119.55 22.9 2123.65 29.6 2123.65 37.2V46.5C2117.45 33.7 2088.45 34.7 2088.45 55.1C2088.45 63.9 2096.85 70.5 2106.35 70.5C2116.45 70.5 2121.85 63.3 2123.65 56L2130.45 70H2131.55V38.5C2131.55 26.2 2121.65 21.9 2113.35 21.9ZM2108.55 68.6C2101.65 68.6 2095.65 62.5 2095.65 54.2C2095.65 34.6 2119.75 36.9 2123.65 48.4V50.8C2123.25 59.4 2117.85 68.6 2108.55 68.6ZM2183.54 39.4C2182.24 27.5 2175.34 21.9 2167.14 21.9C2154.14 21.9 2150.74 35.4 2149.44 46.7V22.6H2141.54V70H2149.44V55.2C2149.44 46.8 2151.44 25.8 2162.64 23.7C2171.24 22 2174.94 30.5 2175.74 38C2176.24 43.1 2178.34 66.7 2178.64 70H2186.64C2186.14 66.3 2184.54 49.2 2183.54 39.4ZM2215.67 37L2231.87 22.6H2230.77L2202.47 47.7V-4.76837e-06L2194.67 -4.76837e-06V70H2202.47V48.6L2210.57 41.4L2228.07 70H2236.17L2215.67 37ZM-123 159.4C-124.3 147.5 -131.2 141.9 -139.4 141.9C-152.4 141.9 -155.8 155.4 -157.1 166.7V120H-165V190H-157.1V175.1C-157.1 166.7 -155.1 145.8 -143.9 143.7C-135.3 142 -131.6 150.5 -130.8 158C-130.3 163.1 -128.3 186.7 -127.9 190H-120C-120.4 186.3 -122 169.2 -123 159.4ZM-88.5727 141.9C-101.173 141.9 -114.973 151 -114.973 166.2C-114.973 181.4 -101.173 190.5 -88.5727 190.5C-75.9727 190.5 -62.1727 181.4 -62.1727 166.2C-62.1727 151 -75.9727 141.9 -88.5727 141.9ZM-88.5727 189.7C-98.4727 189.7 -106.773 179.4 -106.773 166.2C-106.773 153 -98.4727 142.7 -88.5727 142.7C-78.6727 142.7 -70.3727 153 -70.3727 166.2C-70.3727 179.4 -78.6727 189.7 -88.5727 189.7ZM-26.2133 172.3C-26.2133 180.6 -29.1133 188.4 -35.8133 188.7C-43.7133 189.1 -45.3133 183.1 -45.3133 174.4V142.6H-33.6133V141.9H-45.3133V128.2H-46.4133L-53.2133 141.9H-59.1133V142.6H-53.2133V173C-53.2133 184.7 -47.7133 190.5 -38.9133 190.5C-28.3133 190.5 -25.5133 181.8 -25.5133 172.3H-26.2133ZM27.8609 176.1C26.2609 179 20.8609 187.7 11.0609 188.7C0.860939 189.8 -7.53906 184.2 -11.2391 173.7C-12.9391 168.9 -13.1391 163 -11.9391 157.7H27.3609C25.9609 145.6 14.2609 141.4 5.86094 141.9C-5.13906 142.4 -20.9391 149.9 -20.4391 167.3C-20.0391 183.7 -5.43906 191.1 7.56094 190.5C19.4609 189.9 25.3609 182.1 28.5609 176.4L27.8609 176.1ZM1.26094 143C11.0609 141.2 18.8609 148.2 20.1609 156.9H-11.7391C-9.83906 150.1 -5.53906 144.3 1.26094 143ZM35.5859 120V190H43.4859V120H35.5859ZM130.851 152.6C141.251 151.4 150.951 147.4 150.951 136.6C150.951 122.6 134.351 120 121.451 120H100.551V190H125.751C138.751 190 155.351 185.3 155.351 171.2C155.351 159 142.651 153.8 130.851 152.6ZM121.451 120.8C137.851 120.8 143.151 127.8 143.151 136.6C143.151 145.5 137.851 152.4 121.451 152.4H108.351V120.8H121.451ZM125.751 189.3H108.351V153.2H125.751C142.251 153.2 147.451 162.4 147.451 171.2C147.451 180.1 142.251 189.3 125.751 189.3ZM185.22 141.9C177.22 141.9 172.42 146.1 170.82 151.5L171.52 151.8C173.12 146.5 177.82 142.9 184.32 142.9C191.42 142.9 195.52 149.6 195.52 157.2V166.5C189.32 153.7 160.32 154.7 160.32 175.1C160.32 183.9 168.72 190.5 178.22 190.5C188.32 190.5 193.72 183.3 195.52 176L202.32 190H203.42V158.5C203.42 146.2 193.52 141.9 185.22 141.9ZM180.42 188.6C173.52 188.6 167.52 182.5 167.52 174.2C167.52 154.6 191.62 156.9 195.52 168.4V170.8C195.12 179.4 189.72 188.6 180.42 188.6ZM255.418 159.4C254.118 147.5 247.218 141.9 239.018 141.9C226.018 141.9 222.618 155.4 221.318 166.7V142.6H213.418V190H221.318V175.2C221.318 166.8 223.318 145.8 234.518 143.7C243.118 142 246.818 150.5 247.618 158C248.118 163.1 250.218 186.7 250.518 190H258.518C258.018 186.3 256.418 169.2 255.418 159.4ZM287.543 157L303.743 142.6H302.643L274.343 167.7V120H266.543V190H274.343V168.6L282.443 161.4L299.943 190H308.043L287.543 157ZM380.125 159.4C378.825 147.5 371.925 141.9 363.725 141.9C350.725 141.9 347.325 155.4 346.025 166.7V120L338.125 120V190L346.025 190V175.1C346.025 166.7 348.025 145.8 359.225 143.7C367.825 142 371.525 150.5 372.325 158C372.825 163.1 374.825 186.7 375.225 190H383.125C382.725 186.3 381.125 169.2 380.125 159.4ZM414.552 141.9C401.952 141.9 388.152 151 388.152 166.2C388.152 181.4 401.952 190.5 414.552 190.5C427.152 190.5 440.952 181.4 440.952 166.2C440.952 151 427.152 141.9 414.552 141.9ZM414.552 189.7C404.652 189.7 396.352 179.4 396.352 166.2C396.352 153 404.652 142.7 414.552 142.7C424.452 142.7 432.752 153 432.752 166.2C432.752 179.4 424.452 189.7 414.552 189.7ZM476.912 172.3C476.912 180.6 474.012 188.4 467.312 188.7C459.412 189.1 457.812 183.1 457.812 174.4V142.6H469.512V141.9H457.812V128.2H456.712L449.912 141.9H444.012V142.6H449.912V173C449.912 184.7 455.412 190.5 464.212 190.5C474.812 190.5 477.612 181.8 477.612 172.3H476.912ZM530.986 176.1C529.386 179 523.986 187.7 514.186 188.7C503.986 189.8 495.586 184.2 491.886 173.7C490.186 168.9 489.986 163 491.186 157.7H530.486C529.086 145.6 517.386 141.4 508.986 141.9C497.986 142.4 482.186 149.9 482.686 167.3C483.086 183.7 497.686 191.1 510.686 190.5C522.586 189.9 528.486 182.1 531.686 176.4L530.986 176.1ZM504.386 143C514.186 141.2 521.986 148.2 523.286 156.9H491.386C493.286 150.1 497.586 144.3 504.386 143ZM538.711 120V190H546.611V120H538.711ZM610.929 152.6C621.329 151.4 631.029 147.4 631.029 136.6C631.029 122.6 614.429 120 601.529 120H580.629V190H605.829C618.829 190 635.429 185.3 635.429 171.2C635.429 159 622.729 153.8 610.929 152.6ZM601.529 120.8C617.929 120.8 623.229 127.8 623.229 136.6C623.229 145.5 617.929 152.4 601.529 152.4H588.429V120.8H601.529ZM605.829 189.3H588.429V153.2H605.829C622.329 153.2 627.529 162.4 627.529 171.2C627.529 180.1 622.329 189.3 605.829 189.3ZM665.298 141.9C657.298 141.9 652.498 146.1 650.898 151.5L651.598 151.8C653.198 146.5 657.898 142.9 664.398 142.9C671.498 142.9 675.598 149.6 675.598 157.2V166.5C669.398 153.7 640.398 154.7 640.398 175.1C640.398 183.9 648.798 190.5 658.298 190.5C668.398 190.5 673.798 183.3 675.598 176L682.398 190H683.498V158.5C683.498 146.2 673.598 141.9 665.298 141.9ZM660.498 188.6C653.598 188.6 647.598 182.5 647.598 174.2C647.598 154.6 671.698 156.9 675.598 168.4V170.8C675.198 179.4 669.798 188.6 660.498 188.6ZM735.496 159.4C734.196 147.5 727.296 141.9 719.096 141.9C706.096 141.9 702.696 155.4 701.396 166.7V142.6H693.496V190H701.396V175.2C701.396 166.8 703.396 145.8 714.596 143.7C723.196 142 726.896 150.5 727.696 158C728.196 163.1 730.296 186.7 730.596 190H738.596C738.096 186.3 736.496 169.2 735.496 159.4ZM767.621 157L783.821 142.6H782.721L754.421 167.7V120H746.621V190H754.421V168.6L762.521 161.4L780.021 190H788.121L767.621 157ZM883.25 159.4C881.95 147.5 875.05 141.9 866.85 141.9C853.85 141.9 850.45 155.4 849.15 166.7V120H841.25V190H849.15V175.1C849.15 166.7 851.15 145.8 862.35 143.7C870.95 142 874.65 150.5 875.45 158C875.95 163.1 877.95 186.7 878.35 190H886.25C885.85 186.3 884.25 169.2 883.25 159.4ZM917.677 141.9C905.077 141.9 891.277 151 891.277 166.2C891.277 181.4 905.077 190.5 917.677 190.5C930.277 190.5 944.077 181.4 944.077 166.2C944.077 151 930.277 141.9 917.677 141.9ZM917.677 189.7C907.777 189.7 899.477 179.4 899.477 166.2C899.477 153 907.777 142.7 917.677 142.7C927.577 142.7 935.877 153 935.877 166.2C935.877 179.4 927.577 189.7 917.677 189.7ZM980.037 172.3C980.037 180.6 977.137 188.4 970.437 188.7C962.537 189.1 960.937 183.1 960.937 174.4V142.6H972.637V141.9H960.937V128.2H959.837L953.037 141.9H947.137V142.6H953.037V173C953.037 184.7 958.537 190.5 967.337 190.5C977.937 190.5 980.737 181.8 980.737 172.3H980.037ZM1034.11 176.1C1032.51 179 1027.11 187.7 1017.31 188.7C1007.11 189.8 998.711 184.2 995.011 173.7C993.311 168.9 993.111 163 994.311 157.7H1033.61C1032.21 145.6 1020.51 141.4 1012.11 141.9C1001.11 142.4 985.311 149.9 985.811 167.3C986.211 183.7 1000.81 191.1 1013.81 190.5C1025.71 189.9 1031.61 182.1 1034.81 176.4L1034.11 176.1ZM1007.51 143C1017.31 141.2 1025.11 148.2 1026.41 156.9H994.511C996.411 150.1 1000.71 144.3 1007.51 143ZM1041.84 120V190H1049.74V120H1041.84ZM1114.05 152.6C1124.45 151.4 1134.15 147.4 1134.15 136.6C1134.15 122.6 1117.55 120 1104.65 120H1083.75V190H1108.95C1121.95 190 1138.55 185.3 1138.55 171.2C1138.55 159 1125.85 153.8 1114.05 152.6ZM1104.65 120.8C1121.05 120.8 1126.35 127.8 1126.35 136.6C1126.35 145.5 1121.05 152.4 1104.65 152.4H1091.55V120.8H1104.65ZM1108.95 189.3H1091.55V153.2H1108.95C1125.45 153.2 1130.65 162.4 1130.65 171.2C1130.65 180.1 1125.45 189.3 1108.95 189.3ZM1168.42 141.9C1160.42 141.9 1155.62 146.1 1154.02 151.5L1154.72 151.8C1156.32 146.5 1161.02 142.9 1167.52 142.9C1174.62 142.9 1178.72 149.6 1178.72 157.2V166.5C1172.52 153.7 1143.52 154.7 1143.52 175.1C1143.52 183.9 1151.92 190.5 1161.42 190.5C1171.52 190.5 1176.92 183.3 1178.72 176L1185.52 190H1186.62V158.5C1186.62 146.2 1176.72 141.9 1168.42 141.9ZM1163.62 188.6C1156.72 188.6 1150.72 182.5 1150.72 174.2C1150.72 154.6 1174.82 156.9 1178.72 168.4V170.8C1178.32 179.4 1172.92 188.6 1163.62 188.6ZM1238.62 159.4C1237.32 147.5 1230.42 141.9 1222.22 141.9C1209.22 141.9 1205.82 155.4 1204.52 166.7V142.6H1196.62V190H1204.52V175.2C1204.52 166.8 1206.52 145.8 1217.72 143.7C1226.32 142 1230.02 150.5 1230.82 158C1231.32 163.1 1233.42 186.7 1233.72 190H1241.72C1241.22 186.3 1239.62 169.2 1238.62 159.4ZM1270.75 157L1286.95 142.6H1285.85L1257.55 167.7V120H1249.75V190H1257.55V168.6L1265.65 161.4L1283.15 190H1291.25L1270.75 157ZM1363.33 159.4C1362.03 147.5 1355.13 141.9 1346.93 141.9C1333.93 141.9 1330.53 155.4 1329.23 166.7V120H1321.33V190H1329.23V175.1C1329.23 166.7 1331.23 145.8 1342.43 143.7C1351.03 142 1354.73 150.5 1355.53 158C1356.03 163.1 1358.03 186.7 1358.43 190L1366.33 190C1365.93 186.3 1364.33 169.2 1363.33 159.4ZM1397.76 141.9C1385.16 141.9 1371.36 151 1371.36 166.2C1371.36 181.4 1385.16 190.5 1397.76 190.5C1410.36 190.5 1424.16 181.4 1424.16 166.2C1424.16 151 1410.36 141.9 1397.76 141.9ZM1397.76 189.7C1387.86 189.7 1379.56 179.4 1379.56 166.2C1379.56 153 1387.86 142.7 1397.76 142.7C1407.66 142.7 1415.96 153 1415.96 166.2C1415.96 179.4 1407.66 189.7 1397.76 189.7ZM1460.11 172.3C1460.11 180.6 1457.21 188.4 1450.51 188.7C1442.61 189.1 1441.01 183.1 1441.01 174.4V142.6H1452.71V141.9H1441.01V128.2H1439.91L1433.11 141.9H1427.21V142.6H1433.11V173C1433.11 184.7 1438.61 190.5 1447.41 190.5C1458.01 190.5 1460.81 181.8 1460.81 172.3H1460.11ZM1514.19 176.1C1512.59 179 1507.19 187.7 1497.39 188.7C1487.19 189.8 1478.79 184.2 1475.09 173.7C1473.39 168.9 1473.19 163 1474.39 157.7H1513.69C1512.29 145.6 1500.59 141.4 1492.19 141.9C1481.19 142.4 1465.39 149.9 1465.89 167.3C1466.29 183.7 1480.89 191.1 1493.89 190.5C1505.79 189.9 1511.69 182.1 1514.89 176.4L1514.19 176.1ZM1487.59 143C1497.39 141.2 1505.19 148.2 1506.49 156.9H1474.59C1476.49 150.1 1480.79 144.3 1487.59 143ZM1521.91 120V190H1529.81V120H1521.91Z" fill="#FFFCF6" fill-opacity="0.12"/>
<path d="M461.613 32.6C472.013 31.4 481.713 27.4 481.713 16.6C481.713 2.6 465.113 -4.76837e-06 452.213 -4.76837e-06H431.313V70H456.513C469.513 70 486.113 65.3 486.113 51.2C486.113 39 473.413 33.8 461.613 32.6ZM452.213 0.799997C468.613 0.799997 473.913 7.8 473.913 16.6C473.913 25.5 468.613 32.4 452.213 32.4H439.113V0.799997H452.213ZM456.513 69.3H439.113V33.2H456.513C473.013 33.2 478.213 42.4 478.213 51.2C478.213 60.1 473.013 69.3 456.513 69.3ZM515.982 21.9C507.982 21.9 503.182 26.1 501.582 31.5L502.282 31.8C503.882 26.5 508.582 22.9 515.082 22.9C522.182 22.9 526.282 29.6 526.282 37.2V46.5C520.082 33.7 491.082 34.7 491.082 55.1C491.082 63.9 499.482 70.5 508.982 70.5C519.082 70.5 524.482 63.3 526.282 56L533.082 70H534.182V38.5C534.182 26.2 524.282 21.9 515.982 21.9ZM511.182 68.6C504.282 68.6 498.282 62.5 498.282 54.2C498.282 34.6 522.382 36.9 526.282 48.4V50.8C525.882 59.4 520.482 68.6 511.182 68.6ZM586.18 39.4C584.88 27.5 577.98 21.9 569.78 21.9C556.78 21.9 553.38 35.4 552.08 46.7V22.6H544.18V70H552.08V55.2C552.08 46.8 554.08 25.8 565.28 23.7C573.88 22 577.58 30.5 578.38 38C578.88 43.1 580.98 66.7 581.28 70H589.28C588.78 66.3 587.18 49.2 586.18 39.4ZM618.305 37L634.505 22.6H633.405L605.105 47.7V-4.76837e-06H597.305V70L605.105 70V48.6L613.205 41.4L630.705 70H638.805L618.305 37ZM646.84 71.9V72.7H685.34V71.9H646.84ZM697.328 71.9V72.7H735.828V71.9H697.328ZM788.816 39.4C787.516 27.5 780.616 21.9 772.416 21.9C759.416 21.9 756.016 35.4 754.716 46.7V-4.76837e-06H746.816V70H754.716V55.1C754.716 46.7 756.716 25.8 767.916 23.7C776.516 22 780.216 30.5 781.016 38C781.516 43.1 783.516 66.7 783.916 70H791.816C791.416 66.3 789.816 49.2 788.816 39.4ZM823.244 21.9C810.644 21.9 796.844 31 796.844 46.2C796.844 61.4 810.644 70.5 823.244 70.5C835.844 70.5 849.644 61.4 849.644 46.2C849.644 31 835.844 21.9 823.244 21.9ZM823.244 69.7C813.344 69.7 805.044 59.4 805.044 46.2C805.044 33 813.344 22.7 823.244 22.7C833.144 22.7 841.444 33 841.444 46.2C841.444 59.4 833.144 69.7 823.244 69.7ZM885.603 52.3C885.603 60.6 882.703 68.4 876.003 68.7C868.103 69.1 866.503 63.1 866.503 54.4V22.6H878.203V21.9H866.503V8.2H865.403L858.603 21.9H852.703V22.6H858.603V53C858.603 64.7 864.103 70.5 872.903 70.5C883.503 70.5 886.303 61.8 886.303 52.3H885.603ZM939.677 56.1C938.077 59 932.677 67.7 922.877 68.7C912.677 69.8 904.277 64.2 900.577 53.7C898.877 48.9 898.677 43 899.877 37.7H939.177C937.777 25.6 926.077 21.4 917.677 21.9C906.677 22.4 890.877 29.9 891.377 47.3C891.777 63.7 906.377 71.1 919.377 70.5C931.277 69.9 937.177 62.1 940.377 56.4L939.677 56.1ZM913.077 23C922.877 21.2 930.677 28.2 931.977 36.9H900.077C901.977 30.1 906.277 24.3 913.077 23ZM947.402 -4.76837e-06V70H955.302V-4.76837e-06H947.402ZM1006.47 57.6C997.473 59 990.073 54.3 987.373 45.3C984.573 36.3 987.773 26 996.473 24.1C1003.17 22.7 1010.77 26.4 1014.57 33V26.9C1013.17 25.7 1007.27 22.9 1001.67 22.9C991.573 22.9 982.473 31.1 982.473 41.2C982.473 51.2 991.173 59.4 1001.27 59.4C1010.27 59.4 1015.17 54.7 1017.97 49L1017.57 48.8C1014.97 54 1010.97 57 1006.47 57.6ZM999.873 8.1C981.273 8.1 966.273 23.1 966.273 41.7C966.273 60.2 981.273 75.3 999.873 75.3C1018.37 75.3 1033.47 60.2 1033.47 41.7C1033.47 23.1 1018.37 8.1 999.873 8.1ZM999.873 74.4C981.773 74.4 967.073 59.7 967.073 41.7C967.073 23.6 981.773 8.9 999.873 8.9C1017.97 8.9 1032.67 23.6 1032.67 41.7C1032.67 59.7 1017.97 74.4 999.873 74.4Z" fill="#FFFCF6"/>
</svg>
