<svg width="722" height="195" viewBox="0 0 722 195" fill="none" xmlns="http://www.w3.org/2000/svg">
<path d="M44.375 42.25C57.375 40.75 69.5 35.75 69.5 22.25C69.5 4.75 48.75 1.49999 32.625 1.49999L6.5 1.49999L6.5 89H38C54.25 89 75 83.125 75 65.5C75 50.25 59.125 43.75 44.375 42.25ZM32.625 2.5C53.125 2.5 59.75 11.25 59.75 22.25C59.75 33.375 53.125 42 32.625 42H16.25V2.5L32.625 2.5ZM38 88.125H16.25L16.25 43H38C58.625 43 65.125 54.5 65.125 65.5C65.125 76.625 58.625 88.125 38 88.125ZM94.8662 88.125V40.25L126.366 43V36.625L94.8662 39.375V2.5L128.991 9.25V1.49999L84.9912 1.49999V89H130.366V81.375L94.8662 88.125ZM149.228 16.375C149.978 7.5 155.603 1.875 168.228 1.875C176.478 1.875 188.478 7.37499 197.478 21.25V8.25C190.728 3.87499 180.478 0.249995 171.353 0.249995C151.478 0.249995 144.478 12.25 144.478 22.625C144.478 54.125 200.978 45.875 197.603 72.375C196.478 82 187.603 87.625 175.853 87.625C159.978 87.625 145.603 75.375 139.103 63V80C148.478 86.125 161.853 89.625 171.978 89.625C189.728 89.625 203.228 79.125 203.228 64.25C203.228 34.375 147.228 41.375 149.228 16.375ZM205.782 1.49999V9.25L237.282 2.5V89H247.032V2.5L278.532 9.25V1.49999L205.782 1.49999ZM57.125 194H67L33.25 106.5H23.375L27.5 117.25L0.25 194H1.25L13.125 160.375H44.125L57.125 194ZM13.5 159.5L28 118.5L43.75 159.5H13.5ZM91.7139 106.5H75.7139V194H85.5889V157.625H91.7139C116.339 157.625 132.714 149.625 132.714 132C132.714 114.375 116.339 106.5 91.7139 106.5ZM91.7139 156.625H85.5889V107.5H91.7139C114.214 107.5 122.839 117.25 122.839 132C122.839 146.75 114.214 156.625 91.7139 156.625ZM184.566 194H194.441L160.691 106.5H150.816L154.941 117.25L127.691 194H128.691L140.566 160.375H171.566L184.566 194ZM140.941 159.5L155.441 118.5L171.191 159.5H140.941ZM239.655 151.875C252.155 148.875 261.53 141.875 261.53 130C261.53 113.75 243.905 106.5 224.53 106.5H203.155V194H213.03V153.5H224.53C226.53 153.5 228.405 153.5 230.28 153.375L253.405 194H264.155L239.655 151.875ZM224.53 152.625H213.03V107.5H224.53C248.28 107.5 251.655 120.25 251.655 130C251.655 139.75 248.28 152.625 224.53 152.625ZM267.916 106.5V114.25L299.416 107.5V194H309.166V107.5L340.666 114.25V106.5H267.916ZM426.43 106.5L394.555 161.875L358.68 106.5H348.18L353.055 114V194H354.055V115.5L389.805 170H390.93L425.305 110.25V194H435.18V106.5H426.43ZM460.101 193.125V145.25L491.601 148V141.625L460.101 144.375V107.5L494.226 114.25V106.5H450.226V194H495.601V186.375L460.101 193.125ZM569.837 106.5V178.25L513.212 106.5H500.587L508.587 116.625V194H509.462V117.875L568.962 194H570.837V106.5H569.837ZM582.125 106.5V114.25L613.625 107.5V194H623.375V107.5L654.875 114.25V106.5H582.125ZM667.538 121.375C668.288 112.5 673.913 106.875 686.538 106.875C694.788 106.875 706.788 112.375 715.788 126.25V113.25C709.038 108.875 698.788 105.25 689.663 105.25C669.788 105.25 662.788 117.25 662.788 127.625C662.788 159.125 719.288 150.875 715.913 177.375C714.788 187 705.913 192.625 694.163 192.625C678.288 192.625 663.913 180.375 657.413 168V185C666.788 191.125 680.163 194.625 690.288 194.625C708.038 194.625 721.538 184.125 721.538 169.25C721.538 139.375 665.538 146.375 667.538 121.375Z" fill="#FCD043"/>
</svg>
