<svg width="709" height="181" viewBox="0 0 709 181" fill="none" xmlns="http://www.w3.org/2000/svg">
<path d="M149.25 95.75V156.5C141 165.5 129.75 172.5 114.75 174.5C70.25 180.25 37.5 155.5 24 111.25C10.5 67.25 26 16.75 68.75 7.49999C101.5 0.249992 138.75 18.75 157.25 50.75V21C150.25 15 121.75 1.49999 94.25 1.49999C44.75 1.49999 3.53903e-07 41.5 3.53903e-07 91C3.53903e-07 140.25 40 180.25 89.25 180.25C138.25 180.25 162.25 154 169 139.5V95.75H149.25ZM218.715 177.25V81.5L281.715 87V74.25L218.715 79.75V5.99999L286.965 19.5V3.99999H198.965V179H289.715V163.75L218.715 177.25ZM304.805 3.99999V19.5L367.805 5.99999V179H387.305V5.99999L450.305 19.5V3.99999L304.805 3.99999ZM532.949 3.99999V179H552.699V3.99999H532.949ZM706.254 3.99999V147.5L593.004 3.99999H567.754L583.754 24.25V179H585.504V26.75L704.504 179H708.254V3.99999H706.254Z" fill="#1B3B36"/>
<path d="M149.25 95.75V156.5C141 165.5 129.75 172.5 114.75 174.5C70.25 180.25 37.5 155.5 24 111.25C10.5 67.25 26 16.75 68.75 7.49999C101.5 0.249992 138.75 18.75 157.25 50.75V21C150.25 15 121.75 1.49999 94.25 1.49999C44.75 1.49999 3.53903e-07 41.5 3.53903e-07 91C3.53903e-07 140.25 40 180.25 89.25 180.25C138.25 180.25 162.25 154 169 139.5V95.75H149.25ZM218.715 177.25V81.5L281.715 87V74.25L218.715 79.75V5.99999L286.965 19.5V3.99999H198.965V179H289.715V163.75L218.715 177.25ZM304.805 3.99999V19.5L367.805 5.99999V179H387.305V5.99999L450.305 19.5V3.99999L304.805 3.99999ZM532.949 3.99999V179H552.699V3.99999H532.949ZM706.254 3.99999V147.5L593.004 3.99999H567.754L583.754 24.25V179H585.504V26.75L704.504 179H708.254V3.99999H706.254Z" fill="black" fill-opacity="0.2"/>
</svg>
