<svg width="541" height="300" viewBox="0 0 541 300" fill="none" xmlns="http://www.w3.org/2000/svg">
<path d="M47.25 0.249995C22.5 0.249995 0.5 20.25 0.5 45C0.5 69.625 22.5 89.625 47.25 89.625C71.875 89.625 94 69.625 94 45C94 20.25 71.875 0.249995 47.25 0.249995ZM47.25 88.625C25.375 88.625 11 68 11 45C11 21.875 25.375 1.375 47.25 1.375C69 1.375 83.5 21.875 83.5 45C83.5 68 69 88.625 47.25 88.625ZM167.386 1.49999V59.5C167.386 73.625 158.011 87 142.636 88.25C124.511 89.75 113.886 77.25 113.886 56.625V1.49999H104.011V56.625C104.011 79.375 119.636 89.625 138.261 89.625C155.886 89.625 168.261 77 168.261 59.5V1.49999H167.386ZM219.734 46.875C232.234 43.875 241.609 36.875 241.609 25C241.609 8.75 223.984 1.49999 204.609 1.49999H183.234V89H193.109V48.5H204.609C206.609 48.5 208.484 48.5 210.359 48.375L233.484 89H244.234L219.734 46.875ZM204.609 47.625H193.109V2.5H204.609C228.359 2.5 231.734 15.25 231.734 25C231.734 34.75 228.359 47.625 204.609 47.625ZM46.875 114.25V106.5H5.5L5.5 194H15.375L15.375 149.375L44.125 152V145.75L15.375 148.375V107.5L46.875 114.25ZM106.296 194H116.171L82.4209 106.5H72.5459L76.6709 117.25L49.4209 194H50.4209L62.2959 160.375H93.2959L106.296 194ZM62.6709 159.5L77.1709 118.5L92.9209 159.5H62.6709ZM201.005 168.75C194.63 181.375 184.88 188.625 173.755 190.375C151.755 193.625 133.63 182.25 126.88 160.125C120.255 138.125 128.005 112.875 149.255 108.25C165.755 104.625 184.255 113.875 193.63 129.875V115C190.13 112 175.755 105.25 162.005 105.25C137.38 105.25 114.88 125.25 114.88 150C114.88 174.625 136.255 194.625 161.005 194.625C183.13 194.625 195.13 183.25 201.88 169.25L201.005 168.75ZM211.921 106.5V194H221.796V106.5H211.921ZM245.719 298.125V211.5H235.969V299H281.344V291.375L245.719 298.125ZM292.609 211.5V299H302.484V211.5H292.609ZM312.57 211.5V219.25L344.07 212.5V299H353.82V212.5L385.32 219.25V211.5H312.57ZM397.834 211.5V299H407.709V211.5H397.834ZM432.611 298.125V250.25L464.111 253V246.625L432.611 249.375V212.5L466.736 219.25V211.5H422.736V299H468.111V291.375L432.611 298.125ZM486.973 226.375C487.723 217.5 493.348 211.875 505.973 211.875C514.223 211.875 526.223 217.375 535.223 231.25V218.25C528.473 213.875 518.223 210.25 509.098 210.25C489.223 210.25 482.223 222.25 482.223 232.625C482.223 264.125 538.723 255.875 535.348 282.375C534.223 292 525.348 297.625 513.598 297.625C497.723 297.625 483.348 285.375 476.848 273V290C486.223 296.125 499.598 299.625 509.723 299.625C527.473 299.625 540.973 289.125 540.973 274.25C540.973 244.375 484.973 251.375 486.973 226.375Z" fill="#1B3B36"/>
<path d="M47.25 0.249995C22.5 0.249995 0.5 20.25 0.5 45C0.5 69.625 22.5 89.625 47.25 89.625C71.875 89.625 94 69.625 94 45C94 20.25 71.875 0.249995 47.25 0.249995ZM47.25 88.625C25.375 88.625 11 68 11 45C11 21.875 25.375 1.375 47.25 1.375C69 1.375 83.5 21.875 83.5 45C83.5 68 69 88.625 47.25 88.625ZM167.386 1.49999V59.5C167.386 73.625 158.011 87 142.636 88.25C124.511 89.75 113.886 77.25 113.886 56.625V1.49999H104.011V56.625C104.011 79.375 119.636 89.625 138.261 89.625C155.886 89.625 168.261 77 168.261 59.5V1.49999H167.386ZM219.734 46.875C232.234 43.875 241.609 36.875 241.609 25C241.609 8.75 223.984 1.49999 204.609 1.49999H183.234V89H193.109V48.5H204.609C206.609 48.5 208.484 48.5 210.359 48.375L233.484 89H244.234L219.734 46.875ZM204.609 47.625H193.109V2.5H204.609C228.359 2.5 231.734 15.25 231.734 25C231.734 34.75 228.359 47.625 204.609 47.625ZM46.875 114.25V106.5H5.5L5.5 194H15.375L15.375 149.375L44.125 152V145.75L15.375 148.375V107.5L46.875 114.25ZM106.296 194H116.171L82.4209 106.5H72.5459L76.6709 117.25L49.4209 194H50.4209L62.2959 160.375H93.2959L106.296 194ZM62.6709 159.5L77.1709 118.5L92.9209 159.5H62.6709ZM201.005 168.75C194.63 181.375 184.88 188.625 173.755 190.375C151.755 193.625 133.63 182.25 126.88 160.125C120.255 138.125 128.005 112.875 149.255 108.25C165.755 104.625 184.255 113.875 193.63 129.875V115C190.13 112 175.755 105.25 162.005 105.25C137.38 105.25 114.88 125.25 114.88 150C114.88 174.625 136.255 194.625 161.005 194.625C183.13 194.625 195.13 183.25 201.88 169.25L201.005 168.75ZM211.921 106.5V194H221.796V106.5H211.921ZM245.719 298.125V211.5H235.969V299H281.344V291.375L245.719 298.125ZM292.609 211.5V299H302.484V211.5H292.609ZM312.57 211.5V219.25L344.07 212.5V299H353.82V212.5L385.32 219.25V211.5H312.57ZM397.834 211.5V299H407.709V211.5H397.834ZM432.611 298.125V250.25L464.111 253V246.625L432.611 249.375V212.5L466.736 219.25V211.5H422.736V299H468.111V291.375L432.611 298.125ZM486.973 226.375C487.723 217.5 493.348 211.875 505.973 211.875C514.223 211.875 526.223 217.375 535.223 231.25V218.25C528.473 213.875 518.223 210.25 509.098 210.25C489.223 210.25 482.223 222.25 482.223 232.625C482.223 264.125 538.723 255.875 535.348 282.375C534.223 292 525.348 297.625 513.598 297.625C497.723 297.625 483.348 285.375 476.848 273V290C486.223 296.125 499.598 299.625 509.723 299.625C527.473 299.625 540.973 289.125 540.973 274.25C540.973 244.375 484.973 251.375 486.973 226.375Z" fill="black" fill-opacity="0.2"/>
</svg>
