<svg width="746" height="91" viewBox="0 0 746 91" fill="none" xmlns="http://www.w3.org/2000/svg">
<path d="M47.7266 1.30859C22.9766 1.30859 0.976563 21.3086 0.976563 46.0586C0.976563 70.6836 22.9766 90.6836 47.7266 90.6836C72.3516 90.6836 94.4766 70.6836 94.4766 46.0586C94.4766 21.3086 72.3516 1.30859 47.7266 1.30859ZM47.7266 89.6836C25.8516 89.6836 11.4766 69.0586 11.4766 46.0586C11.4766 22.9336 25.8516 2.43359 47.7266 2.43359C69.4766 2.43359 83.9766 22.9336 83.9766 46.0586C83.9766 69.0586 69.4766 89.6836 47.7266 89.6836ZM167.862 2.55859V60.5586C167.862 74.6836 158.487 88.0586 143.112 89.3086C124.987 90.8086 114.362 78.3086 114.362 57.6836V2.55859H104.487V57.6836C104.487 80.4336 120.112 90.6836 138.737 90.6836C156.362 90.6836 168.737 78.0586 168.737 60.5586V2.55859H167.862ZM220.211 47.9336C232.711 44.9336 242.086 37.9336 242.086 26.0586C242.086 9.80859 224.461 2.55859 205.086 2.55859H183.711V90.0586H193.586V49.5586H205.086C207.086 49.5586 208.961 49.5586 210.836 49.4336L233.961 90.0586H244.711L220.211 47.9336ZM205.086 48.6836H193.586V3.55859H205.086C228.836 3.55859 232.211 16.3086 232.211 26.0586C232.211 35.8086 228.836 48.6836 205.086 48.6836ZM354.41 48.4336V78.8086C350.285 83.3086 344.66 86.8086 337.16 87.8086C314.91 90.6836 298.535 78.3086 291.785 56.1836C285.035 34.1836 292.785 8.93359 314.16 4.30859C330.535 0.68359 349.16 9.93359 358.41 25.9336V11.0586C354.91 8.05859 340.66 1.30859 326.91 1.30859C302.16 1.30859 279.785 21.3086 279.785 46.0586C279.785 70.6836 299.785 90.6836 324.41 90.6836C348.91 90.6836 360.91 77.5586 364.285 70.3086V48.4336H354.41ZM426.108 90.0586H435.983L402.233 2.55859H392.358L396.483 13.3086L369.233 90.0586H370.233L382.108 56.4336H413.108L426.108 90.0586ZM382.483 55.5586L396.983 14.5586L412.733 55.5586H382.483ZM454.447 89.1836V2.55859H444.697V90.0586H490.072V82.4336L454.447 89.1836ZM511.088 89.1836V2.55859H501.338V90.0586H546.713V82.4336L511.088 89.1836ZM567.854 89.1836V41.3086L599.354 44.0586V37.6836L567.854 40.4336V3.55859L601.979 10.3086V2.55859H557.979V90.0586H603.354V82.4336L567.854 89.1836ZM652.34 47.9336C664.84 44.9336 674.215 37.9336 674.215 26.0586C674.215 9.80859 656.59 2.55859 637.215 2.55859H615.84V90.0586H625.715V49.5586H637.215C639.215 49.5586 641.09 49.5586 642.965 49.4336L666.09 90.0586H676.84L652.34 47.9336ZM637.215 48.6836H625.715V3.55859H637.215C660.965 3.55859 664.34 16.3086 664.34 26.0586C664.34 35.8086 660.965 48.6836 637.215 48.6836ZM745.321 2.55859H744.321L717.821 59.0586L687.946 2.55859H678.071L708.571 59.8086V90.0586H718.446V59.8086L745.321 2.55859Z" fill="#FCD043"/>
</svg>
