<svg width="822" height="181" viewBox="0 0 822 181" fill="none" xmlns="http://www.w3.org/2000/svg">
<path d="M7.07805e-07 3.99999V19.5L63 5.99999V179H82.5V5.99999L145.5 19.5V3.99999L7.07805e-07 3.99999ZM236.449 1.49999C186.949 1.49999 142.949 41.5 142.949 91C142.949 140.25 186.949 180.25 236.449 180.25C285.699 180.25 329.949 140.25 329.949 91C329.949 41.5 285.699 1.49999 236.449 1.49999ZM236.449 178.25C192.699 178.25 163.949 137 163.949 91C163.949 44.75 192.699 3.74999 236.449 3.74999C279.949 3.74999 308.949 44.75 308.949 91C308.949 137 279.949 178.25 236.449 178.25ZM476.721 3.99999V120C476.721 148.25 457.971 175 427.221 177.5C390.971 180.5 369.721 155.5 369.721 114.25V3.99999H349.971V114.25C349.971 159.75 381.221 180.25 418.471 180.25C453.721 180.25 478.471 155 478.471 120V3.99999H476.721ZM673.109 128.5C660.359 153.75 640.859 168.25 618.609 171.75C574.609 178.25 538.359 155.5 524.859 111.25C511.609 67.25 527.109 16.75 569.609 7.49999C602.609 0.249992 639.609 18.75 658.359 50.75V21C651.359 15 622.609 1.49999 595.109 1.49999C545.859 1.49999 500.859 41.5 500.859 91C500.859 140.25 543.609 180.25 593.109 180.25C637.359 180.25 661.359 157.5 674.859 129.5L673.109 128.5ZM801.691 3.99999V74.5L714.691 74.5V3.99999H694.941V179H714.691V76.25L801.691 76.25V179H821.441V3.99999H801.691Z" fill="#FCD043"/>
</svg>
